/* XPM */
static char * TX Tileset Grass_xpm[] = {
"64 64 245 2",
"  	c #72751B",
". 	c #76791F",
"+ 	c #74771D",
"@ 	c #75781E",
"# 	c #70741C",
"$ 	c #787B20",
"% 	c #73771E",
"& 	c #73761C",
"* 	c #73761B",
"= 	c #74771E",
"- 	c #777A20",
"; 	c #6A7019",
"> 	c #787B21",
", 	c #797C22",
"' 	c #7C7F24",
") 	c #7D8031",
"! 	c #73761D",
"~ 	c #747726",
"{ 	c #6E731B",
"] 	c #71761D",
"^ 	c #74771F",
"/ 	c #6F731B",
"( 	c #87885A",
"_ 	c #A89A84",
": 	c #85865A",
"< 	c #747625",
"[ 	c #9E967D",
"} 	c #6E721B",
"| 	c #6F731A",
"1 	c #70742C",
"2 	c #8F8E74",
"3 	c #72752C",
"4 	c #72751C",
"5 	c #82835C",
"6 	c #72761D",
"7 	c #70731B",
"8 	c #71751B",
"9 	c #777B20",
"0 	c #71751C",
"a 	c #7A7D23",
"b 	c #75782C",
"c 	c #7A7D22",
"d 	c #767920",
"e 	c #6D711A",
"f 	c #74782E",
"g 	c #898F78",
"h 	c #71762E",
"i 	c #888860",
"j 	c #949376",
"k 	c #6F741C",
"l 	c #74781F",
"m 	c #7E845C",
"n 	c #9B9587",
"o 	c #7C825C",
"p 	c #747725",
"q 	c #94937A",
"r 	c #918F77",
"s 	c #94937B",
"t 	c #9D9680",
"u 	c #747626",
"v 	c #7B7E31",
"w 	c #8A9178",
"x 	c #787B2F",
"y 	c #6B711B",
"z 	c #70752E",
"A 	c #6C711A",
"B 	c #73751E",
"C 	c #8C8561",
"D 	c #737625",
"E 	c #717425",
"F 	c #707425",
"G 	c #7C815C",
"H 	c #8F927B",
"I 	c #87885C",
"J 	c #6E732C",
"K 	c #7E7839",
"L 	c #838459",
"M 	c #7B7E23",
"N 	c #75771F",
"O 	c #797B22",
"P 	c #787B2A",
"Q 	c #868D79",
"R 	c #767928",
"S 	c #A48838",
"T 	c #A28637",
"U 	c #787921",
"V 	c #72741C",
"W 	c #737626",
"X 	c #88895D",
"Y 	c #85855D",
"Z 	c #868466",
"` 	c #73772F",
" .	c #77771D",
"..	c #9E8D30",
"+.	c #8A7D2A",
"@.	c #867A28",
"#.	c #96842F",
"$.	c #9F8E30",
"%.	c #777A21",
"&.	c #6F731C",
"*.	c #787A2E",
"=.	c #89907A",
"-.	c #939383",
";.	c #9C947C",
">.	c #9D957F",
",.	c #9E9782",
"'.	c #8A8127",
").	c #B2913C",
"!.	c #71741B",
"~.	c #70751D",
"{.	c #868760",
"].	c #858D7D",
"^.	c #737627",
"/.	c #72752D",
"(.	c #908F76",
"_.	c #71731C",
":.	c #70741D",
"<.	c #70731C",
"[.	c #72772E",
"}.	c #878763",
"|.	c #A79A84",
"1.	c #747627",
"2.	c #979991",
"3.	c #767934",
"4.	c #9F9880",
"5.	c #6E7226",
"6.	c #76791E",
"7.	c #73761E",
"8.	c #757920",
"9.	c #6D721A",
"0.	c #7E845F",
"a.	c #7F855F",
"b.	c #74772D",
"c.	c #999B94",
"d.	c #8F852A",
"e.	c #90852A",
"f.	c #777B21",
"g.	c #74761C",
"h.	c #A78D36",
"i.	c #71741C",
"j.	c #77791F",
"k.	c #75781D",
"l.	c #70741B",
"m.	c #797C21",
"n.	c #72761B",
"o.	c #70741A",
"p.	c #74781E",
"q.	c #76782D",
"r.	c #969475",
"s.	c #777B2F",
"t.	c #73771C",
"u.	c #76771D",
"v.	c #727524",
"w.	c #84845A",
"x.	c #A79984",
"y.	c #828359",
"z.	c #897E28",
"A.	c #AD893D",
"B.	c #8D802A",
"C.	c #75761C",
"D.	c #908962",
"E.	c #70732C",
"F.	c #73741D",
"G.	c #958130",
"H.	c #A08D31",
"I.	c #A98F37",
"J.	c #777A1F",
"K.	c #757A2F",
"L.	c #81865D",
"M.	c #9C9587",
"N.	c #80855F",
"O.	c #717525",
"P.	c #908961",
"Q.	c #787B1F",
"R.	c #848B79",
"S.	c #9F9884",
"T.	c #70731D",
"U.	c #717424",
"V.	c #767A1F",
"W.	c #76781E",
"X.	c #71761C",
"Y.	c #7B7B21",
"Z.	c #6E7319",
"`.	c #6F741B",
" +	c #8D8429",
".+	c #B2923C",
"++	c #8E8329",
"@+	c #74751D",
"#+	c #9A892F",
"$+	c #947F30",
"%+	c #998631",
"&+	c #73751B",
"*+	c #A99037",
"=+	c #75791F",
"-+	c #72761C",
";+	c #7A7D21",
">+	c #87875D",
",+	c #898A5D",
"'+	c #897F27",
")+	c #8A7F2A",
"!+	c #897E29",
"~+	c #82875F",
"{+	c #80865F",
"]+	c #747820",
"^+	c #A9A191",
"/+	c #83845C",
"(+	c #A38638",
"_+	c #A28537",
":+	c #797B20",
"<+	c #797D30",
"[+	c #90907F",
"}+	c #909182",
"|+	c #72782E",
"1+	c #7B7D21",
"2+	c #787A1F",
"3+	c #AB9137",
"4+	c #9C8A30",
"5+	c #71731B",
"6+	c #797C2F",
"7+	c #939275",
"8+	c #787B35",
"9+	c #7B7D23",
"0+	c #88885D",
"a+	c #87875C",
"b+	c #707426",
"c+	c #878566",
"d+	c #878E79",
"e+	c #8A8A5D",
"f+	c #85865C",
"g+	c #9B8A2F",
"h+	c #73751D",
"i+	c #717625",
"j+	c #9C947D",
"k+	c #737725",
"l+	c #797C30",
"m+	c #7E835C",
"n+	c #7D835C",
"o+	c #72762D",
"p+	c #A08F31",
"q+	c #988630",
"r+	c #71752D",
"s+	c #838A77",
"t+	c #737635",
"u+	c #6E711A",
"v+	c #7C7E22",
"                                                                                                                                ",
"                                                                                                                                ",
"                                                                                        . +                                     ",
"                                        @                                               + #                                     ",
"                                    $ + % &                         &   * @                                                     ",
"                                  . = - ; > ,                     + ' = ) !                                                     ",
"              ~ ~                 % - { ] ^                         / ( _ :                                                     ",
"            < [ [ <                 { ! } |                           1 2 3                                 @                   ",
"            4 5 5 4                   6 7                               8                             &   9 0                   ",
"                                                      + a @                       4 b 4               c d % e                   ",
"                                                  . f g h                         : _ i j ~           7 k e               @     ",
"                                                  l m n o                       p q r s t u                         v w x >     ",
"                                                  | y z A                       B C D E F                           G n H I     ",
"                                                      0                           8                                 4 J K L     ",
"                                                                                                                                ",
"                                                                                                                                ",
"                                                                                                                                ",
"                                                                                                                                ",
"                                                                                      *                                         ",
"                                                                                      M +   @                                   ",
"                                                    $ + . +                         . N O . !                                   ",
"                                                    = P Q R =                       ! S T U V                                   ",
"      $ + . + W W                                 4 X Y Z ` {                      ...+.@.#.$.          .                       ",
"      = %.&.*.=.-.W                               D ;.>.,.j                       '.).'.  7 !.    ! . @ l                       ",
"      l ~.( _ {.].^.                                F /.(.3                         _.            8 :.^ |                       ",
"      <.[.1 r }.|.:                                     8                                           | &                         ",
"      1.2.3.4.s 2 3                                                                                                             ",
"        5.W (.3 8                                                 & & + , @                                           + a @     ",
"            8                       @ 6.    *                     & ' 7.{                                             0 {       ",
"                                      8.@ + M                       / &                                                         ",
"                                      | 7 - 0                                                                                   ",
"                                          9.                                                                                    ",
"                                                                                                                                ",
"                                            + 6.                                                                                ",
"                                            & a +   &                                                                     *     ",
"                                            4 0.a.- $                                                               , 6.+ c     ",
"                  + 6.  + !                 b.c.a./                                                                 d.e.- 9.    ",
"                    f.+ -                   4 J 4                                                                 g.h.h./       ",
"                    { i.9.                                @                     - & j.!                             !.!.        ",
"                                                        + .                 k.j.l.. m.n.                                        ",
"                                                        0 :.@               o.p.q.r.s.t.                                        ",
"        u.                                                i.0                 v.w.x.y.                                          ",
"      z.A.B.$.C.                      $ &   @                                 j D.E.4                                           ",
"      F.G.H.I.g.                    J.%.K.d ! ~ ~                             E E                                               ",
"        8 !.!.                      % L.M.N.O.P.j                   + Q.                                                        ",
"                                      J R.S.j T.U.                    V.@                                                       ",
"                                        D (.3                         o.o.                                                      ",
"                                          8                                                                                     ",
"                                                                                                                                ",
"      k.                                                                                  W.6.                                  ",
"      . +                         4 m.                                                    > !.                                  ",
"    k.X.0                           V.W.Y.+                                               Z.                                    ",
"    4 0                             `. +.+++g.      + 6.@ j.                                                                    ",
"                                      @+#+$+%+    . W.& - +                                                           k.  &+    ",
"                          +             8 7 _.    W.*+*+% =+                                                      k.@ -+J.;+    ",
"                      4 >+,+                  &+    '+'+)+!+          k.W.  + !                                   ] ~+{+]+p.    ",
"    &+                b ^+/+                  ;+J.    u.(+_+g.      + :+. % <+4                                   O.[+}+|+l.    ",
"  & 1+@ + 2+          4 E.4                   o.0   C.3+4+5+          6+7+8+2.b.                            k.9+0+a+b+c+d+      ",
"  m.e+f+%.| 2+* k.                                  g.g+h+            L x.L 5.4                               i+j+;.D T.F       ",
"  v.j+j+k+4 l+=+6.                k.W.C.W.!           8               4 E.4                                     F F             ",
"    F F   m+M.n+o+4                 . p+q+              + ! m.k.                                                                ",
"          r+s+t+2.b.                `.i.u+            &+v+X.l.                                                                  ",
"            8   5.4                                     -+!                                                                     ",
"                                                                                                                                "};
