/* XPM */
static char * Player_down_xpm[] = {
"64 64 188 2",
"  	c #72751B",
". 	c #76791F",
"+ 	c #74771D",
"@ 	c #75781E",
"# 	c #70741C",
"$ 	c #787B20",
"% 	c #73771E",
"& 	c #73761C",
"* 	c #73761B",
"= 	c #74771E",
"- 	c #777A20",
"; 	c #6A7019",
"> 	c #787B21",
", 	c #797C22",
"' 	c #7C7F24",
") 	c #665638",
"! 	c #747726",
"~ 	c #6E731B",
"{ 	c #71761D",
"] 	c #74771F",
"^ 	c #6F731B",
"/ 	c #747625",
"( 	c #9E967D",
"_ 	c #73761D",
": 	c #6E721B",
"< 	c #6F731A",
"[ 	c #72751C",
"} 	c #82835C",
"| 	c #72761D",
"1 	c #70731B",
"2 	c #FFD78B",
"3 	c #777B20",
"4 	c #71751C",
"5 	c #7A7D23",
"6 	c #7A7D22",
"7 	c #767920",
"8 	c #6D711A",
"9 	c #74782E",
"0 	c #898F78",
"a 	c #71762E",
"b 	c #949376",
"c 	c #6F741C",
"d 	c #CCAC6F",
"e 	c #9D9680",
"f 	c #747626",
"g 	c #7B7E31",
"h 	c #8A9178",
"i 	c #787B2F",
"j 	c #707425",
"k 	c #7C815C",
"l 	c #9B9587",
"m 	c #8F927B",
"n 	c #87885C",
"o 	c #6E732C",
"p 	c #7E7839",
"q 	c #838459",
"r 	c #4C4029",
"s 	c #998153",
"t 	c #737626",
"u 	c #777A21",
"v 	c #6F731C",
"w 	c #787A2E",
"x 	c #89907A",
"y 	c #939383",
"z 	c #CC8A66",
"A 	c #74781F",
"B 	c #70751D",
"C 	c #87885A",
"D 	c #A89A84",
"E 	c #868760",
"F 	c #858D7D",
"G 	c #737627",
"H 	c #71751B",
"I 	c #70741D",
"J 	c #70731C",
"K 	c #72772E",
"L 	c #70742C",
"M 	c #918F77",
"N 	c #878763",
"O 	c #A79A84",
"P 	c #85865A",
"Q 	c #747627",
"R 	c #979991",
"S 	c #767934",
"T 	c #9F9880",
"U 	c #94937B",
"V 	c #8F8E74",
"W 	c #72752C",
"X 	c #000000",
"Y 	c #6E7226",
"Z 	c #908F76",
"` 	c #4C3325",
" .	c #99674C",
"..	c #E4CD5F",
"+.	c #1D1C1C",
"@.	c #93918D",
"#.	c #5B5226",
"$.	c #9F8F42",
"%.	c #76791E",
"&.	c #8F852A",
"*.	c #90852A",
"=.	c #6D721A",
"-.	c #777B21",
";.	c #74761C",
">.	c #A78D36",
",.	c #71741C",
"'.	c #3A3938",
").	c #C4C1BC",
"!.	c #71741B",
"~.	c #76771D",
"{.	c #272625",
"].	c #4E4C4A",
"^.	c #897E28",
"/.	c #AD893D",
"(.	c #8D802A",
"_.	c #9F8E30",
":.	c #75761C",
"<.	c #73741D",
"[.	c #958130",
"}.	c #A08D31",
"|.	c #A98F37",
"1.	c #615F5D",
"2.	c #75781D",
"3.	c #76781E",
"4.	c #71761C",
"5.	c #6E7319",
"6.	c #AEAAA6",
"7.	c #73751B",
"8.	c #72761C",
"9.	c #777A1F",
"0.	c #7A7D21",
"a.	c #87875D",
"b.	c #898A5D",
"c.	c #82875F",
"d.	c #80865F",
"e.	c #747820",
"f.	c #74781E",
"g.	c #75782C",
"h.	c #A9A191",
"i.	c #83845C",
"j.	c #413F3E",
"k.	c #A38638",
"l.	c #A28537",
"m.	c #797D30",
"n.	c #717525",
"o.	c #90907F",
"p.	c #909182",
"q.	c #72782E",
"r.	c #70741B",
"s.	c #7B7D21",
"t.	c #787A1F",
"u.	c #70732C",
"v.	c #AB9137",
"w.	c #9C8A30",
"x.	c #71731B",
"y.	c #74772D",
"z.	c #7B7D23",
"A.	c #88885D",
"B.	c #87875C",
"C.	c #707426",
"D.	c #878566",
"E.	c #878E79",
"F.	c #797C21",
"G.	c #8A8A5D",
"H.	c #85865C",
"I.	c #9B8A2F",
"J.	c #73751D",
"K.	c #717625",
"L.	c #9C947D",
"M.	c #9C947C",
"N.	c #737625",
"O.	c #70731D",
"P.	c #727524",
"Q.	c #737725",
"R.	c #797C30",
"S.	c #75791F",
"T.	c #7E835C",
"U.	c #9C9587",
"V.	c #7D835C",
"W.	c #72762D",
"X.	c #A08F31",
"Y.	c #988630",
"Z.	c #71752D",
"`.	c #838A77",
" +	c #737635",
".+	c #6F741B",
"++	c #6E711A",
"@+	c #7C7E22",
"                                                                                                                                ",
"                                                                                                                                ",
"                                                                                        . +                                     ",
"                                        @                                               + #                                     ",
"                                    $ + % &                         &   * @                                                     ",
"                                  . = - ; > ,                     + ' ) ) ) ) ) ) ) ) )                                         ",
"              ! !                 % - ~ { ]                         ^ ) ) ) ) ) ) ) ) )                                         ",
"            / ( ( /                 ~ _ : <                           ) ) ) ) ) ) ) ) )                     @                   ",
"            [ } } [   ) ) ) ) ) )     | 1                 ) ) ) ) ) ) 2 2 2 2 2 2 ) ) )               &   3 4                   ",
"                      ) ) ) ) ) )                     + 5 ) ) ) ) ) ) 2 2 2 2 2 2 ) ) )               6 7 % 8                   ",
"                      ) ) ) ) ) )                 . 9 0 a ) ) ) ) ) ) 2 2 2 2 2 2 ) ) ) b !           1 c 8               @     ",
"                                  ) ) )       ) ) ) ) ) ) 2 2 2 2 2 2 d d d d d d ) ) ) e f                         g h i >     ",
"                                  ) ) )       ) ) ) ) ) ) 2 2 2 2 2 2 d d d d d d ) ) ) j                           k l m n     ",
"                                  ) ) )       ) ) ) ) ) ) 2 2 2 2 2 2 d d d d d d ) ) )                             [ o p q     ",
"                                        ) ) ) d d d 2 2 2 2 2 2 d d d d d d ) ) ) ) ) ) ) ) ) ) ) ) ) ) )                       ",
"                                        ) ) ) d d d 2 2 2 2 2 2 d d d d d d ) ) ) ) ) ) ) ) ) ) ) ) ) ) )                       ",
"                                        ) ) ) d d d 2 2 2 2 2 2 d d d d d d ) ) ) ) ) ) ) ) ) ) ) ) ) ) )                       ",
"                                  r r r d d d 2 2 2 2 2 2 2 2 2 2 2 2 d d d 2 2 2 2 2 2 2 2 2 2 2 2 ) ) )                       ",
"                                  r r r d d d 2 2 2 2 2 2 2 2 2 2 2 2 d d d 2 2 2 2 2 2 2 2 2 2 2 2 ) ) )                       ",
"                                  r r r d d d 2 2 2 2 2 2 2 2 2 2 2 2 d d d 2 2 2 2 2 2 2 2 2 2 2 2 ) ) )                       ",
"                            r r r s s s d d d d d d 2 2 2 2 2 2 d d d d d d d d d d d d d d d ) ) )                             ",
"                            r r r s s s d d d d d d 2 2 2 2 2 2 d d d d d d d d d d d d d d d ) ) )                             ",
"      $ + . + t t           r r r s s s d d d d d d 2 2 2 2 2 2 d d d d d d d d d d d d d d d ) ) )     .                       ",
"      = u v w x y t         r r r s s s s s s z z z z z z z z z z z z s s s s s s s s s r r r     _ . @ A                       ",
"      A B C D E F G         r r r s s s s s s z z z z z z z z z z z z s s s s s s s s s r r r     H I ] <                       ",
"      J K L M N O P         r r r s s s s s s z z z z z z z z z z z z s s s s s s s s s r r r       < &                         ",
"      Q R S T U V W         r r r s s s z z z X X X z z z z z z X X X z z z s s s r r r                                         ",
"        Y t Z W H           r r r s s s z z z X X X z z z z z z X X X z z z s s s r r r                               + 5 @     ",
"            H               r r r s s s z z z X X X z z z z z z X X X z z z s s s r r r                               4 ~       ",
"                                  ` ` `  . . .X X X z z z z z z X X X  . . .` ` `                                               ",
"                                  ` ` `  . . .X X X z z z z z z X X X  . . .` ` `                                               ",
"                                  ` ` `  . . .X X X z z z z z z X X X  . . .` ` `                                               ",
"                                        ` ` `  . . . . . . . . . . . .` ` ` ............                                        ",
"                                        ` ` `  . . . . . . . . . . . .` ` ` ............                                        ",
"                                        ` ` `  . . . . . . . . . . . .` ` ` ............                                  *     ",
"                                  +.+.+.@.@.@.` ` ` ` ` ` ` ` ` ` ` ` #.#.#.$.$.$.$.$.$.......                      , %.+ 6     ",
"                  + %.  + _       +.+.+.@.@.@.` ` ` ` ` ` ` ` ` ` ` ` #.#.#.$.$.$.$.$.$.......                      &.*.- =.    ",
"                    -.+ -         +.+.+.@.@.@.` ` ` ` ` ` ` ` ` ` ` ` #.#.#.$.$.$.$.$.$.......                    ;.>.>.^       ",
"                    ~ ,.=.  +.+.+.'.'.'.).).).@.@.@.@.@.@.@.@.@.@.@.@.).).).#.#.#.$.$.$.......                      !.!.        ",
"                            +.+.+.'.'.'.).).).@.@.@.@.@.@.@.@.@.@.@.@.).).).#.#.#.$.$.$.......                                  ",
"                            +.+.+.'.'.'.).).).@.@.@.@.@.@.@.@.@.@.@.@.).).).#.#.#.$.$.$.......                                  ",
"        ~.            {.{.{.].].].].].].).).).).).).).).).).).).).).).).).).].].].].].].{.{.{.                                  ",
"      ^./.(._.:.      {.{.{.].].].].].].).).).).).).).).).).).).).).).).).).].].].].].].{.{.{.                                  ",
"      <.[.}.|.;.      {.{.{.].].].].].].).).).).).).).).).).).).).).).).).).].].].].].].{.{.{.                                  ",
"        H !.!.        {.{.{.1.1.1.].].].{.{.{.).).).).).).).).).).).).{.{.{.].].].1.1.1.{.{.{.                                  ",
"                      {.{.{.1.1.1.].].].{.{.{.).).).).).).).).).).).).{.{.{.].].].1.1.1.{.{.{.                                  ",
"                      {.{.{.1.1.1.].].].{.{.{.).).).).).).).).).).).).{.{.{.].].].1.1.1.{.{.{.                                  ",
"                            {.{.{.{.{.{.1.1.1.1.1.1.1.1.1.1.1.1.1.1.1.1.1.1.{.{.{.{.{.{.                                        ",
"                            {.{.{.{.{.{.1.1.1.1.1.1.1.1.1.1.1.1.1.1.1.1.1.1.{.{.{.{.{.{.                                        ",
"      2.                    {.{.{.{.{.{.1.1.1.1.1.1.1.1.1.1.1.1.1.1.1.1.1.1.{.{.{.{.{.{.  3.%.                                  ",
"      . +                         {.{.{.1.1.1.1.1.1.].].].].].].1.1.1.1.1.1.{.{.{.        > !.                                  ",
"    2.4.4                         {.{.{.1.1.1.1.1.1.].].].].].].1.1.1.1.1.1.{.{.{.        5.                                    ",
"    [ 4                           {.{.{.1.1.1.1.1.1.].].].].].].1.1.1.1.1.1.{.{.{.                                              ",
"                                  ` ` ` 6.6.6.6.6.6.{.{.{.{.{.{.6.6.6.6.6.6.` ` `                                     2.  7.    ",
"                          +       ` ` ` 6.6.6.6.6.6.{.{.{.{.{.{.6.6.6.6.6.6.` ` `                                 2.@ 8.9.0.    ",
"                      [ a.b.      ` ` ` 6.6.6.6.6.6.{.{.{.{.{.{.6.6.6.6.6.6.` ` `                                 { c.d.e.f.    ",
"    7.                g.h.i.            j.j.j.j.j.j.  ~.k.l.;.  j.j.j.j.j.j.m.[                                   n.o.p.q.r.    ",
"  & s.@ + t.          [ u.[             j.j.j.j.j.j.:.v.w.x.    j.j.j.j.j.j.R y.                            2.z.A.B.C.D.E.      ",
"  F.G.H.u < t.* 2.                      j.j.j.j.j.j.;.I.J.      j.j.j.j.j.j.Y [                               K.L.M.N.O.j       ",
"  P.L.L.Q.[ R.S.%.                2.3.:.3._           H               [ u.[                                     j j             ",
"    j j   T.U.V.W.[                 . X.Y.              + _ F.2.                                                                ",
"          Z.`. +R y.                .+,.++            7.@+4.r.                                                                  ",
"            H   Y [                                     8._                                                                     ",
"                                                                                                                                "};
