/* XPM */
static char * Player_up_xpm[] = {
"64 64 203 2",
"  	c #72751B",
". 	c #76791F",
"+ 	c #74771D",
"@ 	c #75781E",
"# 	c #70741C",
"$ 	c #787B20",
"% 	c #73771E",
"& 	c #73761C",
"* 	c #73761B",
"= 	c #74771E",
"- 	c #777A20",
"; 	c #6A7019",
"> 	c #787B21",
", 	c #797C22",
"' 	c #7C7F24",
") 	c #7D8031",
"! 	c #73761D",
"~ 	c #747726",
"{ 	c #6E731B",
"] 	c #4C4029",
"^ 	c #6F731B",
"/ 	c #87885A",
"( 	c #A89A84",
"_ 	c #85865A",
": 	c #747625",
"< 	c #9E967D",
"[ 	c #70742C",
"} 	c #8F8E74",
"| 	c #72752C",
"1 	c #72751C",
"2 	c #82835C",
"3 	c #72761D",
"4 	c #71751B",
"5 	c #777B20",
"6 	c #71751C",
"7 	c #FFD78B",
"8 	c #75782C",
"9 	c #665638",
"0 	c #6D711A",
"a 	c #888860",
"b 	c #949376",
"c 	c #747725",
"d 	c #94937A",
"e 	c #918F77",
"f 	c #94937B",
"g 	c #9D9680",
"h 	c #747626",
"i 	c #7B7E31",
"j 	c #8A9178",
"k 	c #787B2F",
"l 	c #CCAC6F",
"m 	c #8C8561",
"n 	c #737625",
"o 	c #717425",
"p 	c #7C815C",
"q 	c #9B9587",
"r 	c #8F927B",
"s 	c #87885C",
"t 	c #6E732C",
"u 	c #7E7839",
"v 	c #838459",
"w 	c #998153",
"x 	c #737626",
"y 	c #777A21",
"z 	c #6F731C",
"A 	c #787A2E",
"B 	c #89907A",
"C 	c #939383",
"D 	c #74781F",
"E 	c #70751D",
"F 	c #868760",
"G 	c #858D7D",
"H 	c #737627",
"I 	c #70741D",
"J 	c #74771F",
"K 	c #6F731A",
"L 	c #70731C",
"M 	c #72772E",
"N 	c #878763",
"O 	c #A79A84",
"P 	c #747627",
"Q 	c #979991",
"R 	c #767934",
"S 	c #9F9880",
"T 	c #6E7226",
"U 	c #908F76",
"V 	c #7A7D23",
"W 	c #76791E",
"X 	c #757920",
"Y 	c #70731B",
"Z 	c #6D721A",
"` 	c #E4CD5F",
" .	c #7A7D22",
"..	c #9F8F42",
"+.	c #5B5226",
"@.	c #93918D",
"#.	c #1D1C1C",
"$.	c #8F852A",
"%.	c #90852A",
"&.	c #777B21",
"*.	c #74761C",
"=.	c #A78D36",
"-.	c #71741C",
";.	c #71741B",
">.	c #4E4C4A",
",.	c #3A3938",
"'.	c #76771D",
").	c #897E28",
"!.	c #AD893D",
"~.	c #8D802A",
"{.	c #9F8E30",
"].	c #75761C",
"^.	c #272625",
"/.	c #C4C1BC",
"(.	c #73741D",
"_.	c #958130",
":.	c #A08D31",
"<.	c #A98F37",
"[.	c #777A1F",
"}.	c #81865D",
"|.	c #615F5D",
"1.	c #62605E",
"2.	c #75781D",
"3.	c #797C21",
"4.	c #71761C",
"5.	c #767A1F",
"6.	c #76781E",
"7.	c #7B7B21",
"8.	c #6F741B",
"9.	c #8D8429",
"0.	c #B2923C",
"a.	c #8E8329",
"b.	c #74751D",
"c.	c #9A892F",
"d.	c #947F30",
"e.	c #998631",
"f.	c #73751B",
"g.	c #71731C",
"h.	c #A99037",
"i.	c #413F3E",
"j.	c #AEAAA6",
"k.	c #4C3325",
"l.	c #72761C",
"m.	c #7A7D21",
"n.	c #87875D",
"o.	c #898A5D",
"p.	c #897F27",
"q.	c #8A7F2A",
"r.	c #71761D",
"s.	c #82875F",
"t.	c #80865F",
"u.	c #747820",
"v.	c #74781E",
"w.	c #A9A191",
"x.	c #83845C",
"y.	c #A38638",
"z.	c #717525",
"A.	c #90907F",
"B.	c #909182",
"C.	c #72782E",
"D.	c #70741B",
"E.	c #7B7D21",
"F.	c #787A1F",
"G.	c #70732C",
"H.	c #70741A",
"I.	c #AB9137",
"J.	c #9C8A30",
"K.	c #71731B",
"L.	c #797C2F",
"M.	c #939275",
"N.	c #787B35",
"O.	c #7B7D23",
"P.	c #88885D",
"Q.	c #87875C",
"R.	c #707426",
"S.	c #878566",
"T.	c #878E79",
"U.	c #8A8A5D",
"V.	c #85865C",
"W.	c #9B8A2F",
"X.	c #73751D",
"Y.	c #A79984",
"Z.	c #717625",
"`.	c #9C947D",
" +	c #9C947C",
".+	c #70731D",
"++	c #707425",
"@+	c #727524",
"#+	c #737725",
"$+	c #797C30",
"%+	c #75791F",
"&+	c #7E835C",
"*+	c #9C9587",
"=+	c #7D835C",
"-+	c #72762D",
";+	c #A08F31",
">+	c #988630",
",+	c #71752D",
"'+	c #838A77",
")+	c #737635",
"!+	c #74772D",
"~+	c #6E711A",
"{+	c #7C7E22",
"                                                                                                                                ",
"                                                                                                                                ",
"                                                                                        . +                                     ",
"                                        @                                               + #                                     ",
"                                    $ + % &                         &   * @                                                     ",
"                                  . = - ; > ,                     + ' = ) !                                                     ",
"              ~ ~                 % - { ] ] ] ] ] ] ] ] ]           ^ / ( _                                                     ",
"            : < < :                 { ! ] ] ] ] ] ] ] ] ]             [ } |                                 @                   ",
"            1 2 2 1                   3 ] ] ] ] ] ] ] ] ]               4                             &   5 6                   ",
"                                        ] ] ] 7 7 7 7 7 7 ] ] ] ] ] ]             1 8 1       9 9 9 9 9 9 % 0                   ",
"                                        ] ] ] 7 7 7 7 7 7 ] ] ] ] ] ]             _ ( a b ~   9 9 9 9 9 9 0               @     ",
"                                        ] ] ] 7 7 7 7 7 7 ] ] ] ] ] ]           c d e f g h   9 9 9 9 9 9           i j k >     ",
"                                        ] ] ] l l l l l l 7 7 7 7 7 7 9 9 9 9 9 9 m n o 9 9 9                       p q r s     ",
"                                        ] ] ] l l l l l l 7 7 7 7 7 7 9 9 9 9 9 9 4     9 9 9                       1 t u v     ",
"                                        ] ] ] l l l l l l 7 7 7 7 7 7 9 9 9 9 9 9       9 9 9                                   ",
"                      ] ] ] ] ] ] ] ] ] ] ] ] ] ] ] l l l l l l 7 7 7 7 7 7 l l l 9 9 9                                         ",
"                      ] ] ] ] ] ] ] ] ] ] ] ] ] ] ] l l l l l l 7 7 7 7 7 7 l l l 9 9 9                                         ",
"                      ] ] ] ] ] ] ] ] ] ] ] ] ] ] ] l l l l l l 7 7 7 7 7 7 l l l 9 9 9                                         ",
"                      ] ] ] 7 7 7 7 7 7 7 7 7 7 7 7 l l l 7 7 7 7 7 7 7 7 7 7 7 7 l l l ] ] ]                                   ",
"                      ] ] ] 7 7 7 7 7 7 7 7 7 7 7 7 l l l 7 7 7 7 7 7 7 7 7 7 7 7 l l l ] ] ]                                   ",
"                      ] ] ] 7 7 7 7 7 7 7 7 7 7 7 7 l l l 7 7 7 7 7 7 7 7 7 7 7 7 l l l ] ] ]                                   ",
"                            ] ] ] l l l l l l l l l l l l l l l 7 7 7 7 7 7 l l l l l l w w w ] ] ]                             ",
"      $ + . + x x           ] ] ] l l l l l l l l l l l l l l l 7 7 7 7 7 7 l l l l l l w w w ] ] ]     .                       ",
"      = y z A B C x         ] ] ] l l l l l l l l l l l l l l l 7 7 7 7 7 7 l l l l l l w w w ] ] ] . @ D                       ",
"      D E / ( F G H               ] ] ] w w w w w w w w w l l l l l l l l l l l l w w w w w w ] ] ] I J K                       ",
"      L M [ e N O _               ] ] ] w w w w w w w w w l l l l l l l l l l l l w w w w w w ] ] ] K &                         ",
"      P Q R S f } |               ] ] ] w w w w w w w w w l l l l l l l l l l l l w w w w w w ] ] ]                             ",
"        T x U | 4                       ] ] ] w w w w w w w w w w w w w w w w w w w w w w w w ] ] ]                   + V @     ",
"            4                       @ W ] ] ] w w w w w w w w w w w w w w w w w w w w w w w w ] ] ]                   6 {       ",
"                                      X ] ] ] w w w w w w w w w w w w w w w w w w w w w w w w ] ] ]                             ",
"                                      K Y - 6 ] ] ] w w w w w w w w w w w w w w w w w w ] ] ]                                   ",
"                                          Z   ] ] ] w w w w w w w w w w w w w w w w w w ] ] ]                                   ",
"                                              ] ] ] w w w w w w w w w w w w w w w w w w ] ] ]                                   ",
"                                        ` ` ` ` ` ` ] ] ] w w w w w w w w w w w w ] ] ]                                         ",
"                                        ` ` ` ` ` ` ] ] ] w w w w w w w w w w w w ] ] ]                                   *     ",
"                                        ` ` ` ` ` ` ] ] ] w w w w w w w w w w w w ] ] ]                             , W +  .    ",
"                  + W   + !       ` ` ` ............+.+.+.] ] ] ] ] ] ] ] ] ] ] ] @.@.@.#.#.#.                      $.%.- Z     ",
"                    &.+ -         ` ` ` ............+.+.+.] ] ] ] ] ] ] ] ] ] ] ] @.@.@.#.#.#.                    *.=.=.^       ",
"                    { -.Z         ` ` ` ............+.+.+.] ] ] ] ] ] ] ] ] ] ] ] @.@.@.#.#.#.                      ;.;.        ",
"                                  ` ` ` ......+.+.+.>.>.>.@.@.@.@.@.@.@.@.@.@.@.@.@.@.@.,.,.,.#.#.#.                            ",
"                                  ` ` ` ......+.+.+.>.>.>.@.@.@.@.@.@.@.@.@.@.@.@.@.@.@.,.,.,.#.#.#.                            ",
"        '.                        ` ` ` ......+.+.+.>.>.>.@.@.@.@.@.@.@.@.@.@.@.@.@.@.@.,.,.,.#.#.#.                            ",
"      ).!.~.{.].                      $ ^.^.^.>.>.>.>.>.>.^.^.^././././././././././././.@.@.@.#.#.#.                            ",
"      (._.:.<.*.                    [.y ^.^.^.>.>.>.>.>.>.^.^.^././././././././././././.@.@.@.#.#.#.                            ",
"        4 ;.;.                      % }.^.^.^.>.>.>.>.>.>.^.^.^././././././././././././.@.@.@.#.#.#.                            ",
"                                      t ^.^.^.|.|.|.>.>.>.^.^.^././././././././././././.1.1.1.#.#.#.                            ",
"                                        ^.^.^.|.|.|.>.>.>.^.^.^././././././././././././.1.1.1.#.#.#.                            ",
"                                        ^.^.^.|.|.|.>.>.>.^.^.^././././././././././././.1.1.1.#.#.#.                            ",
"                                              ^.^.^.^.^.^.>.>.>.|.|.|.|.|.|.|.|.|.|.|.|.^.^.^.                                  ",
"      2.                                      ^.^.^.^.^.^.>.>.>.|.|.|.|.|.|.|.|.|.|.|.|.^.^.^.                                  ",
"      . +                         1 3.        ^.^.^.^.^.^.>.>.>.|.|.|.|.|.|.|.|.|.|.|.|.^.^.^.                                  ",
"    2.4.6                           5.6.7.+         #.#.#.>.>.>.>.>.>.>.>.>.|.|.|.|.|.|.^.^.^.                                  ",
"    1 6                             8.9.0.a.*.      #.#.#.>.>.>.>.>.>.>.>.>.|.|.|.|.|.|.^.^.^.                                  ",
"                                      b.c.d.e.    . #.#.#.>.>.>.>.>.>.>.>.>.|.|.|.|.|.|.^.^.^.                        2.  f.    ",
"                          +             4 Y g.    6.h.h.% i.i.i.^.^.^.^.^.^.j.j.j.j.j.j.k.k.k.                    2.@ l.[.m.    ",
"                      1 n.o.                  f.    p.p.q.i.i.i.^.^.^.^.^.^.j.j.j.j.j.j.k.k.k.                    r.s.t.u.v.    ",
"    f.                8 w.x.                  m.[.    '.y.i.i.i.^.^.^.^.^.^.j.j.j.j.j.j.k.k.k.                    z.A.B.C.D.    ",
"  & E.@ + F.          1 G.1                   H.6   ].I.J.K.          L.M.N.i.i.i.i.i.i.                    2.O.P.Q.R.S.T.      ",
"  3.U.V.y K F.* 2.                                  *.W.X.            v Y.v i.i.i.i.i.i.                      Z.`. +n .+++      ",
"  @+`.`.#+1 $+%+W                 2.6.].6.!           4               1 G.1 i.i.i.i.i.i.                        ++++            ",
"    ++++  &+*+=+-+1                 . ;+>+              + ! 3.2.                                                                ",
"          ,+'+)+Q !+                8.-.~+            f.{+4.D.                                                                  ",
"            4   T 1                                     l.!                                                                     ",
"                                                                                                                                "};
