/* XPM */
static char * Player_right_xpm[] = {
"64 64 198 2",
"  	c #72751B",
". 	c #76791F",
"+ 	c #74771D",
"@ 	c #75781E",
"# 	c #70741C",
"$ 	c #787B20",
"% 	c #73771E",
"& 	c #73761C",
"* 	c #73761B",
"= 	c #74771E",
"- 	c #777A20",
"; 	c #6A7019",
"> 	c #787B21",
", 	c #797C22",
"' 	c #7C7F24",
") 	c #665638",
"! 	c #747726",
"~ 	c #6E731B",
"{ 	c #71761D",
"] 	c #74771F",
"^ 	c #6F731B",
"/ 	c #747625",
"( 	c #9E967D",
"_ 	c #73761D",
": 	c #6E721B",
"< 	c #6F731A",
"[ 	c #72751C",
"} 	c #82835C",
"| 	c #72761D",
"1 	c #70731B",
"2 	c #FFD78B",
"3 	c #777B20",
"4 	c #71751C",
"5 	c #7A7D23",
"6 	c #7A7D22",
"7 	c #767920",
"8 	c #6D711A",
"9 	c #74782E",
"0 	c #898F78",
"a 	c #71762E",
"b 	c #949376",
"c 	c #6F741C",
"d 	c #CCAC6F",
"e 	c #9D9680",
"f 	c #747626",
"g 	c #7B7E31",
"h 	c #8A9178",
"i 	c #787B2F",
"j 	c #707425",
"k 	c #7C815C",
"l 	c #9B9587",
"m 	c #8F927B",
"n 	c #87885C",
"o 	c #6E732C",
"p 	c #7E7839",
"q 	c #838459",
"r 	c #4C4029",
"s 	c #737626",
"t 	c #777A21",
"u 	c #6F731C",
"v 	c #787A2E",
"w 	c #89907A",
"x 	c #939383",
"y 	c #998153",
"z 	c #CC8A66",
"A 	c #664432",
"B 	c #74781F",
"C 	c #70751D",
"D 	c #87885A",
"E 	c #A89A84",
"F 	c #868760",
"G 	c #858D7D",
"H 	c #737627",
"I 	c #71751B",
"J 	c #70741D",
"K 	c #70731C",
"L 	c #72772E",
"M 	c #70742C",
"N 	c #918F77",
"O 	c #878763",
"P 	c #A79A84",
"Q 	c #85865A",
"R 	c #747627",
"S 	c #979991",
"T 	c #767934",
"U 	c #9F9880",
"V 	c #94937B",
"W 	c #8F8E74",
"X 	c #72752C",
"Y 	c #000000",
"Z 	c #99674C",
"` 	c #6E7226",
" .	c #908F76",
"..	c #4C3325",
"+.	c #76791E",
"@.	c #74772D",
"#.	c #8F852A",
"$.	c #90852A",
"%.	c #6D721A",
"&.	c #777B21",
"*.	c #74761C",
"=.	c #A78D36",
"-.	c #71741C",
";.	c #1D1C1C",
">.	c #93918D",
",.	c #C4C1BC",
"'.	c #F5F1EB",
").	c #494846",
"!.	c #77791F",
"~.	c #71741B",
"{.	c #75781D",
"].	c #70741B",
"^.	c #797C21",
"/.	c #72761B",
"(.	c #70741A",
"_.	c #74781E",
":.	c #76782D",
"<.	c #969475",
"[.	c #777B2F",
"}.	c #73771C",
"|.	c #76771D",
"1.	c #272625",
"2.	c #4E4C4A",
"3.	c #62605E",
"4.	c #A79984",
"5.	c #828359",
"6.	c #897E28",
"7.	c #AD893D",
"8.	c #8D802A",
"9.	c #9F8E30",
"0.	c #75761C",
"a.	c #70732C",
"b.	c #73741D",
"c.	c #958130",
"d.	c #A08D31",
"e.	c #A98F37",
"f.	c #615F5D",
"g.	c #76781E",
"h.	c #413F3E",
"i.	c #AEAAA6",
"j.	c #D9D5D0",
"k.	c #71761C",
"l.	c #6E7319",
"m.	c #73751B",
"n.	c #72761C",
"o.	c #777A1F",
"p.	c #7A7D21",
"q.	c #87875D",
"r.	c #898A5D",
"s.	c #82875F",
"t.	c #80865F",
"u.	c #747820",
"v.	c #75782C",
"w.	c #A9A191",
"x.	c #83845C",
"y.	c #A38638",
"z.	c #A28537",
"A.	c #797D30",
"B.	c #717525",
"C.	c #90907F",
"D.	c #909182",
"E.	c #72782E",
"F.	c #7B7D21",
"G.	c #787A1F",
"H.	c #AB9137",
"I.	c #9C8A30",
"J.	c #71731B",
"K.	c #7B7D23",
"L.	c #88885D",
"M.	c #87875C",
"N.	c #707426",
"O.	c #878566",
"P.	c #878E79",
"Q.	c #8A8A5D",
"R.	c #85865C",
"S.	c #9B8A2F",
"T.	c #73751D",
"U.	c #717625",
"V.	c #9C947D",
"W.	c #9C947C",
"X.	c #737625",
"Y.	c #70731D",
"Z.	c #727524",
"`.	c #737725",
" +	c #797C30",
".+	c #75791F",
"++	c #7E835C",
"@+	c #9C9587",
"#+	c #7D835C",
"$+	c #72762D",
"%+	c #A08F31",
"&+	c #988630",
"*+	c #71752D",
"=+	c #838A77",
"-+	c #737635",
";+	c #6F741B",
">+	c #6E711A",
",+	c #7C7E22",
"                                                                                                                                ",
"                                                                                                                                ",
"                                                                                        . +                                     ",
"                                        @                                               + #                                     ",
"                                    $ + % &                         &   * @                                                     ",
"                                  . = - ; > ,                     + ' ) ) ) ) ) ) ) ) )                                         ",
"              ! !                 % - ~ { ]                         ^ ) ) ) ) ) ) ) ) )                                         ",
"            / ( ( /                 ~ _ : <                           ) ) ) ) ) ) ) ) )                     @                   ",
"            [ } } [   ) ) ) ) ) )     | 1                 ) ) ) ) ) ) 2 2 2 2 2 2 ) ) )               &   3 4                   ",
"                      ) ) ) ) ) )                     + 5 ) ) ) ) ) ) 2 2 2 2 2 2 ) ) )               6 7 % 8                   ",
"                      ) ) ) ) ) )                 . 9 0 a ) ) ) ) ) ) 2 2 2 2 2 2 ) ) ) b !           1 c 8               @     ",
"                                  ) ) )       ) ) ) ) ) ) 2 2 2 2 2 2 d d d d d d ) ) ) e f                         g h i >     ",
"                                  ) ) )       ) ) ) ) ) ) 2 2 2 2 2 2 d d d d d d ) ) ) j                           k l m n     ",
"                                  ) ) )       ) ) ) ) ) ) 2 2 2 2 2 2 d d d d d d ) ) )                             [ o p q     ",
"                                        ) ) ) d d d d d d 2 2 2 d d d d d d ) ) ) ) ) ) ) ) ) ) ) ) ) ) )                       ",
"                                        ) ) ) d d d d d d 2 2 2 d d d d d d ) ) ) ) ) ) ) ) ) ) ) ) ) ) )                       ",
"                                        ) ) ) d d d d d d 2 2 2 d d d d d d ) ) ) ) ) ) ) ) ) ) ) ) ) ) )                       ",
"                                  r r r d d d d d d d d d 2 2 2 2 2 2 ) ) ) 2 2 2 2 2 2 2 2 2 2 2 2 ) ) )                       ",
"                                  r r r d d d d d d d d d 2 2 2 2 2 2 ) ) ) 2 2 2 2 2 2 2 2 2 2 2 2 ) ) )                       ",
"                                  r r r d d d d d d d d d 2 2 2 2 2 2 ) ) ) 2 2 2 2 2 2 2 2 2 2 2 2 ) ) )                       ",
"                                  r r r d d d d d d d d d d d d 2 2 2 2 2 2 d d d d d d d d d ) ) )                             ",
"                                  r r r d d d d d d d d d d d d 2 2 2 2 2 2 d d d d d d d d d ) ) )                             ",
"      $ + . + s s                 r r r d d d d d d d d d d d d 2 2 2 2 2 2 d d d d d d d d d ) ) )     .                       ",
"      = t u v w x s               r r r y y y d d d d d d d d d z z z z z z A A A y y y ) ) )     _ . @ B                       ",
"      B C D E F G H               r r r y y y d d d d d d d d d z z z z z z A A A y y y ) ) )     I J ] <                       ",
"      K L M N O P Q               r r r y y y d d d d d d d d d z z z z z z A A A y y y ) ) )       < &                         ",
"      R S T U V W X               r r r y y y y y y d d d z z z Y Y Y Z Z Z A A A ) ) )                                         ",
"        ` s  .X I                 r r r y y y y y y d d d z z z Y Y Y Z Z Z A A A ) ) )                               + 5 @     ",
"            I                     r r r y y y y y y d d d z z z Y Y Y Z Z Z A A A ) ) )                               4 ~       ",
"                                  r r r y y y y y y y y y Z Z Z Y Y Y Z Z Z ......                                              ",
"                                  r r r y y y y y y y y y Z Z Z Y Y Y Z Z Z ......                                              ",
"                                  r r r y y y y y y y y y Z Z Z Y Y Y Z Z Z ......                                              ",
"                                        r r r y y y Z Z Z Z Z Z Z Z Z ......                                                    ",
"                                        r r r y y y Z Z Z Z Z Z Z Z Z ......                                                    ",
"                                        r r r y y y Z Z Z Z Z Z Z Z Z ......                                              *     ",
"                                            [ ........................                                              , +.+ 6     ",
"                  + +.  + _                 @.........................                                              #.$.- %.    ",
"                    &.+ -                   [ ........................                                            *.=.=.^       ",
"                    ~ -.%.              ;.;.;.>.>.>.,.,.,.,.,.,.'.'.'.).).).    - & !._                             ~.~.        ",
"                                        ;.;.;.>.>.>.,.,.,.,.,.,.'.'.'.).).).{.!.].. ^./.                                        ",
"                                        ;.;.;.>.>.>.,.,.,.,.,.,.'.'.'.).).).(._.:.<.[.}.                                        ",
"        |.                        1.1.1.2.2.2.2.2.2.'.'.'.,.,.,.,.,.,.3.3.3.;.;.;.4.5.                                          ",
"      6.7.8.9.0.                  1.1.1.2.2.2.2.2.2.'.'.'.,.,.,.,.,.,.3.3.3.;.;.;.a.[                                           ",
"      b.c.d.e.*.                  1.1.1.2.2.2.2.2.2.'.'.'.,.,.,.,.,.,.3.3.3.;.;.;.                                              ",
"        I ~.~.                    1.1.1.2.2.2.f.f.f.1.1.1.,.,.,.,.,.,.3.3.3.;.;.;.                                              ",
"                                  1.1.1.2.2.2.f.f.f.1.1.1.,.,.,.,.,.,.3.3.3.;.;.;.                                              ",
"                                  1.1.1.2.2.2.f.f.f.1.1.1.,.,.,.,.,.,.3.3.3.;.;.;.                                              ",
"                                        1.1.1.1.1.1.2.2.2.f.f.f.f.f.f.1.1.1.                                                    ",
"                                        1.1.1.1.1.1.2.2.2.f.f.f.f.f.f.1.1.1.                                                    ",
"      {.                                1.1.1.1.1.1.2.2.2.f.f.f.f.f.f.1.1.1.              g.+.                                  ",
"      . +                         h.h.h.i.i.i.Z Z Z 1.1.1.2.2.2.z z z j.j.j.h.h.h.        > ~.                                  ",
"    {.k.4                         h.h.h.i.i.i.Z Z Z 1.1.1.2.2.2.z z z j.j.j.h.h.h.        l.                                    ",
"    [ 4                           h.h.h.i.i.i.Z Z Z 1.1.1.2.2.2.z z z j.j.j.h.h.h.                                              ",
"                                  h.h.h.i.i.i.i.i.i.1.1.1.1.1.1.i.i.i.j.j.j.h.h.h.                                    {.  m.    ",
"                          +       h.h.h.i.i.i.i.i.i.1.1.1.1.1.1.i.i.i.j.j.j.h.h.h.                                {.@ n.o.p.    ",
"                      [ q.r.      h.h.h.i.i.i.i.i.i.1.1.1.1.1.1.i.i.i.j.j.j.h.h.h.                                { s.t.u._.    ",
"    m.                v.w.x.            h.h.h.h.h.h.  |.y.z.*.  h.h.h.h.h.h.A.[                                   B.C.D.E.].    ",
"  & F.@ + G.          [ a.[             h.h.h.h.h.h.0.H.I.J.    h.h.h.h.h.h.S @.                            {.K.L.M.N.O.P.      ",
"  ^.Q.R.t < G.* {.                      h.h.h.h.h.h.*.S.T.      h.h.h.h.h.h.` [                               U.V.W.X.Y.j       ",
"  Z.V.V.`.[  +.++.                {.g.0.g._           I               [ a.[                                     j j             ",
"    j j   ++@+#+$+[                 . %+&+              + _ ^.{.                                                                ",
"          *+=+-+S @.                ;+-.>+            m.,+k.].                                                                  ",
"            I   ` [                                     n._                                                                     ",
"                                                                                                                                "};
