/* XPM */
static char * Player_left_xpm[] = {
"64 64 204 2",
"  	c #72751B",
". 	c #76791F",
"+ 	c #74771D",
"@ 	c #75781E",
"# 	c #70741C",
"$ 	c #787B20",
"% 	c #73771E",
"& 	c #73761C",
"* 	c #73761B",
"= 	c #74771E",
"- 	c #777A20",
"; 	c #665638",
"> 	c #7C7F24",
", 	c #7D8031",
"' 	c #73761D",
") 	c #747726",
"! 	c #6E731B",
"~ 	c #6F731B",
"{ 	c #87885A",
"] 	c #A89A84",
"^ 	c #85865A",
"/ 	c #747625",
"( 	c #9E967D",
"_ 	c #70742C",
": 	c #8F8E74",
"< 	c #72752C",
"[ 	c #72751C",
"} 	c #82835C",
"| 	c #72761D",
"1 	c #FFD78B",
"2 	c #71751B",
"3 	c #777B20",
"4 	c #71751C",
"5 	c #75782C",
"6 	c #6D711A",
"7 	c #888860",
"8 	c #949376",
"9 	c #CCAC6F",
"0 	c #94937A",
"a 	c #918F77",
"b 	c #94937B",
"c 	c #7B7E31",
"d 	c #8A9178",
"e 	c #787B2F",
"f 	c #787B21",
"g 	c #8C8561",
"h 	c #737625",
"i 	c #717425",
"j 	c #7C815C",
"k 	c #9B9587",
"l 	c #8F927B",
"m 	c #87885C",
"n 	c #6E732C",
"o 	c #7E7839",
"p 	c #838459",
"q 	c #4C4029",
"r 	c #737626",
"s 	c #777A21",
"t 	c #6F731C",
"u 	c #787A2E",
"v 	c #89907A",
"w 	c #939383",
"x 	c #998153",
"y 	c #664432",
"z 	c #CC8A66",
"A 	c #74781F",
"B 	c #70751D",
"C 	c #868760",
"D 	c #858D7D",
"E 	c #737627",
"F 	c #70741D",
"G 	c #74771F",
"H 	c #6F731A",
"I 	c #70731C",
"J 	c #72772E",
"K 	c #878763",
"L 	c #A79A84",
"M 	c #747627",
"N 	c #979991",
"O 	c #767934",
"P 	c #9F9880",
"Q 	c #99674C",
"R 	c #000000",
"S 	c #6E7226",
"T 	c #908F76",
"U 	c #7A7D23",
"V 	c #76791E",
"W 	c #757920",
"X 	c #7B7E23",
"Y 	c #4C3325",
"Z 	c #70731B",
"` 	c #6D721A",
" .	c #E4CD5F",
"..	c #7E845F",
"+.	c #7F855F",
"@.	c #9F8F42",
"#.	c #797C22",
"$.	c #7A7D22",
"%.	c #74772D",
"&.	c #999B94",
"*.	c #8F852A",
"=.	c #90852A",
"-.	c #777B21",
";.	c #74761C",
">.	c #A78D36",
",.	c #71741C",
"'.	c #494846",
").	c #5B5226",
"!.	c #1D1C1C",
"~.	c #71741B",
"{.	c #76771D",
"].	c #62605E",
"^.	c #C4C1BC",
"/.	c #4E4C4A",
"(.	c #272625",
"_.	c #897E28",
":.	c #AD893D",
"<.	c #8D802A",
"[.	c #9F8E30",
"}.	c #75761C",
"|.	c #73741D",
"1.	c #958130",
"2.	c #A08D31",
"3.	c #A98F37",
"4.	c #777A1F",
"5.	c #757A2F",
"6.	c #767920",
"7.	c #81865D",
"8.	c #9C9587",
"9.	c #80855F",
"0.	c #717525",
"a.	c #615F5D",
"b.	c #848B79",
"c.	c #9F9884",
"d.	c #75781D",
"e.	c #76781E",
"f.	c #797C21",
"g.	c #413F3E",
"h.	c #D9D5D0",
"i.	c #AEAAA6",
"j.	c #71761C",
"k.	c #767A1F",
"l.	c #7B7B21",
"m.	c #6F741B",
"n.	c #8D8429",
"o.	c #B2923C",
"p.	c #8E8329",
"q.	c #74751D",
"r.	c #9A892F",
"s.	c #947F30",
"t.	c #998631",
"u.	c #73751B",
"v.	c #71731C",
"w.	c #72761C",
"x.	c #7A7D21",
"y.	c #87875D",
"z.	c #898A5D",
"A.	c #71761D",
"B.	c #82875F",
"C.	c #80865F",
"D.	c #747820",
"E.	c #74781E",
"F.	c #A9A191",
"G.	c #83845C",
"H.	c #797B20",
"I.	c #90907F",
"J.	c #909182",
"K.	c #72782E",
"L.	c #70741B",
"M.	c #7B7D21",
"N.	c #787A1F",
"O.	c #70732C",
"P.	c #70741A",
"Q.	c #797C2F",
"R.	c #939275",
"S.	c #787B35",
"T.	c #7B7D23",
"U.	c #88885D",
"V.	c #87875C",
"W.	c #707426",
"X.	c #878566",
"Y.	c #878E79",
"Z.	c #8A8A5D",
"`.	c #85865C",
" +	c #A79984",
".+	c #717625",
"++	c #9C947D",
"@+	c #9C947C",
"#+	c #70731D",
"$+	c #707425",
"%+	c #727524",
"&+	c #737725",
"*+	c #797C30",
"=+	c #75791F",
"-+	c #7E835C",
";+	c #7D835C",
">+	c #72762D",
",+	c #A08F31",
"'+	c #988630",
")+	c #71752D",
"!+	c #838A77",
"~+	c #737635",
"{+	c #6E711A",
"]+	c #7C7E22",
"                                                                                                                                ",
"                                                                                                                                ",
"                                                                                        . +                                     ",
"                                        @                                               + #                                     ",
"                                    $ + % &                         &   * @                                                     ",
"                                  . = - ; ; ; ; ; ; ; ; ;         + > = , '                                                     ",
"              ) )                 % - ! ; ; ; ; ; ; ; ; ;           ~ { ] ^                                                     ",
"            / ( ( /                 ! ' ; ; ; ; ; ; ; ; ;             _ : <                                 @                   ",
"            [ } } [                   | ; ; ; 1 1 1 1 1 1 ; ; ; ; ; ;   2                     ; ; ; ; ; ; 3 4                   ",
"                                        ; ; ; 1 1 1 1 1 1 ; ; ; ; ; ;             [ 5 [       ; ; ; ; ; ; % 6                   ",
"                                        ; ; ; 1 1 1 1 1 1 ; ; ; ; ; ;             ^ ] 7 8 )   ; ; ; ; ; ; 6               @     ",
"                                        ; ; ; 9 9 9 9 9 9 1 1 1 1 1 1 ; ; ; ; ; ; 0 a b ; ; ;                       c d e f     ",
"                                        ; ; ; 9 9 9 9 9 9 1 1 1 1 1 1 ; ; ; ; ; ; g h i ; ; ;                       j k l m     ",
"                                        ; ; ; 9 9 9 9 9 9 1 1 1 1 1 1 ; ; ; ; ; ; 2     ; ; ;                       [ n o p     ",
"                      ; ; ; ; ; ; ; ; ; ; ; ; ; ; ; 9 9 9 9 9 9 1 1 1 9 9 9 9 9 9 ; ; ;                                         ",
"                      ; ; ; ; ; ; ; ; ; ; ; ; ; ; ; 9 9 9 9 9 9 1 1 1 9 9 9 9 9 9 ; ; ;                                         ",
"                      ; ; ; ; ; ; ; ; ; ; ; ; ; ; ; 9 9 9 9 9 9 1 1 1 9 9 9 9 9 9 ; ; ;                                         ",
"                      ; ; ; 1 1 1 1 1 1 1 1 1 1 1 1 ; ; ; 1 1 1 1 1 1 9 9 9 9 9 9 9 9 9 q q q                                   ",
"                      ; ; ; 1 1 1 1 1 1 1 1 1 1 1 1 ; ; ; 1 1 1 1 1 1 9 9 9 9 9 9 9 9 9 q q q                                   ",
"                      ; ; ; 1 1 1 1 1 1 1 1 1 1 1 1 ; ; ; 1 1 1 1 1 1 9 9 9 9 9 9 9 9 9 q q q                                   ",
"                            ; ; ; 9 9 9 9 9 9 9 9 9 1 1 1 1 1 1 9 9 9 9 9 9 9 9 9 9 9 9 q q q                                   ",
"                            ; ; ; 9 9 9 9 9 9 9 9 9 1 1 1 1 1 1 9 9 9 9 9 9 9 9 9 9 9 9 q q q                                   ",
"      $ + . + r r           ; ; ; 9 9 9 9 9 9 9 9 9 1 1 1 1 1 1 9 9 9 9 9 9 9 9 9 9 9 9 q q q           .                       ",
"      = s t u v w r               ; ; ; x x x y y y z z z z z z 9 9 9 9 9 9 9 9 9 x x x q q q     ' . @ A                       ",
"      A B { ] C D E               ; ; ; x x x y y y z z z z z z 9 9 9 9 9 9 9 9 9 x x x q q q     2 F G H                       ",
"      I J _ a K L ^               ; ; ; x x x y y y z z z z z z 9 9 9 9 9 9 9 9 9 x x x q q q       H &                         ",
"      M N O P b : <                     ; ; ; y y y Q Q Q R R R z z z 9 9 9 x x x x x x q q q                                   ",
"        S r T < 2                       ; ; ; y y y Q Q Q R R R z z z 9 9 9 x x x x x x q q q                         + U @     ",
"            2                       @ V ; ; ; y y y Q Q Q R R R z z z 9 9 9 x x x x x x q q q                         4 !       ",
"                                      W @ + X Y Y Y Q Q Q R R R Q Q Q x x x x x x x x x q q q                                   ",
"                                      H Z - 4 Y Y Y Q Q Q R R R Q Q Q x x x x x x x x x q q q                                   ",
"                                          `   Y Y Y Q Q Q R R R Q Q Q x x x x x x x x x q q q                                   ",
"                                                    Y Y Y Q Q Q  . . . . . .x x x q q q                                         ",
"                                            + V     Y Y Y Q Q Q  . . . . . .x x x q q q                                         ",
"                                            & U +   Y Y Y Q Q Q  . . . . . .x x x q q q                                   *     ",
"                                            [ ..+.- $      . . .@.@.@.@.@.@. . . .                                  #.V + $.    ",
"                  + V   + '                 %.&.+.~        . . .@.@.@.@.@.@. . . .                                  *.=.- `     ",
"                    -.+ -                   [ n [          . . .@.@.@.@.@.@. . . .                                ;.>.>.~       ",
"                    ! ,.`                           '.'.'.).).).@.@.@.@.@.@.).).).!.!.!.                            ~.~.        ",
"                                                    '.'.'.).).).@.@.@.@.@.@.).).).!.!.!.                                        ",
"                                                    '.'.'.).).).@.@.@.@.@.@.).).).!.!.!.                                        ",
"        {.                                    !.!.!.].].].^.^.^.).).).).).)././././././.(.(.(.                                  ",
"      _.:.<.[.}.                      $ &   @ !.!.!.].].].^.^.^.).).).).).)././././././.(.(.(.                                  ",
"      |.1.2.3.;.                    4.s 5.6.' !.!.!.].].].^.^.^.).).).).).)././././././.(.(.(.                                  ",
"        2 ~.~.                      % 7.8.9.0.!.!.!.].].].^.^.^.^.^.^.(.(.(.a.a.a./././.(.(.(.                                  ",
"                                      n b.c.8 !.!.!.].].].^.^.^.^.^.^.(.(.(.a.a.a./././.(.(.(.                                  ",
"                                        h T < !.!.!.].].].^.^.^.^.^.^.(.(.(.a.a.a./././.(.(.(.                                  ",
"                                          2         (.(.(.a.a.a.a.a.a./././.(.(.(.(.(.(.                                        ",
"                                                    (.(.(.a.a.a.a.a.a./././.(.(.(.(.(.(.                                        ",
"      d.                                            (.(.(.a.a.a.a.a.a./././.(.(.(.(.(.(.  e.V                                   ",
"      . +                         [ f.        g.g.g.h.h.h.z z z /././.(.(.(.Q Q Q i.i.i.g.g.g.                                  ",
"    d.j.4                           k.e.l.+   g.g.g.h.h.h.z z z /././.(.(.(.Q Q Q i.i.i.g.g.g.                                  ",
"    [ 4                             m.n.o.p.;.g.g.g.h.h.h.z z z /././.(.(.(.Q Q Q i.i.i.g.g.g.                                  ",
"                                      q.r.s.t.g.g.g.h.h.h.i.i.i.(.(.(.(.(.(.i.i.i.i.i.i.g.g.g.                        d.  u.    ",
"                          +             2 Z v.g.g.g.h.h.h.i.i.i.(.(.(.(.(.(.i.i.i.i.i.i.g.g.g.                    d.@ w.4.x.    ",
"                      [ y.z.                  g.g.g.h.h.h.i.i.i.(.(.(.(.(.(.i.i.i.i.i.i.g.g.g.                    A.B.C.D.E.    ",
"    u.                5 F.G.                  x.4.  g.g.g.g.g.g.    + H.. % g.g.g.g.g.g.                          0.I.J.K.L.    ",
"  & M.@ + N.          [ O.[                   P.4   g.g.g.g.g.g.      Q.R.S.g.g.g.g.g.g.                    d.T.U.V.W.X.Y.      ",
"  f.Z.`.s H N.* d.                                  g.g.g.g.g.g.      p  +p g.g.g.g.g.g.                      .+++@+h #+$+      ",
"  %+++++&+[ *+=+V                 d.e.}.e.'           2               [ O.[                                     $+$+            ",
"    $+$+  -+8.;+>+[                 . ,+'+              + ' f.d.                                                                ",
"          )+!+~+N %.                m.,.{+            u.]+j.L.                                                                  ",
"            2   S [                                     w.'                                                                     ",
"                                                                                                                                "};
