/* XPM */
static char * Scroll_2_xpm[] = {
"64 64 499 2",
"  	c #72751B",
". 	c #76791F",
"+ 	c #74771D",
"@ 	c #75781E",
"# 	c #70741C",
"$ 	c #787B20",
"% 	c #73771E",
"& 	c #73761C",
"* 	c #73761B",
"= 	c #74771E",
"- 	c #777A20",
"; 	c #6A7019",
"> 	c #787B21",
", 	c #797C22",
"' 	c #7C7F24",
") 	c #7D8031",
"! 	c #73761D",
"~ 	c #747726",
"{ 	c #6E731B",
"] 	c #71761D",
"^ 	c #74771F",
"/ 	c #6F731B",
"( 	c #87885A",
"_ 	c #A89A84",
": 	c #85865A",
"< 	c #747625",
"[ 	c #9E967D",
"} 	c #6E721B",
"| 	c #6F731A",
"1 	c #70742C",
"2 	c #8F8E74",
"3 	c #72752C",
"4 	c #72751C",
"5 	c #82835C",
"6 	c #72761D",
"7 	c #70731B",
"8 	c #71751B",
"9 	c #777B20",
"0 	c #71751C",
"a 	c #7A7D23",
"b 	c #75782C",
"c 	c #7A7D22",
"d 	c #767920",
"e 	c #6D711A",
"f 	c #74782E",
"g 	c #898F78",
"h 	c #71762E",
"i 	c #888860",
"j 	c #949376",
"k 	c #6F741C",
"l 	c #74781F",
"m 	c #7E845C",
"n 	c #9B9587",
"o 	c #7C825C",
"p 	c #747725",
"q 	c #94937A",
"r 	c #918F77",
"s 	c #94937B",
"t 	c #9D9680",
"u 	c #747626",
"v 	c #7B7E31",
"w 	c #8A9178",
"x 	c #787B2F",
"y 	c #6B711B",
"z 	c #70752E",
"A 	c #6C711A",
"B 	c #73751E",
"C 	c #8C8561",
"D 	c #737625",
"E 	c #717425",
"F 	c #707425",
"G 	c #7C815C",
"H 	c #8F927B",
"I 	c #87885C",
"J 	c #6E732C",
"K 	c #7E7839",
"L 	c #838459",
"M 	c #767822",
"N 	c #777923",
"O 	c #74751D",
"P 	c #848334",
"Q 	c #B9AF66",
"R 	c #C7BB71",
"S 	c #C5BA70",
"T 	c #C7BD72",
"U 	c #BEB068",
"V 	c #9D7938",
"W 	c #806817",
"X 	c #B0A85E",
"Y 	c #EADA8C",
"Z 	c #FAE898",
"` 	c #F8E697",
" .	c #F3DF91",
"..	c #E1C27C",
"+.	c #B67340",
"@.	c #93560E",
"#.	c #7D6E1A",
"$.	c #74741B",
"%.	c #7B7E23",
"&.	c #F7E696",
"*.	c #F9E797",
"=.	c #DEBD79",
"-.	c #BA7745",
";.	c #AC4F22",
">.	c #A5450F",
",.	c #985715",
"'.	c #7C6F1A",
").	c #75771F",
"!.	c #797B22",
"~.	c #C8BD72",
"{.	c #FAE998",
"].	c #F9E697",
"^.	c #D4AC6D",
"/.	c #A73A05",
"(.	c #A84112",
"_.	c #A04D13",
":.	c #7F6D19",
"<.	c #A48838",
"[.	c #A28637",
"}.	c #787921",
"|.	c #72741C",
"1.	c #737626",
"2.	c #FBE999",
"3.	c #A73E0C",
"4.	c #9F4C10",
"5.	c #7E6D19",
"6.	c #77771D",
"7.	c #9E8D30",
"8.	c #8A7D2A",
"9.	c #867A28",
"0.	c #96842F",
"a.	c #9F8E30",
"b.	c #777A21",
"c.	c #6F731C",
"d.	c #787A2E",
"e.	c #89907A",
"f.	c #939383",
"g.	c #F9E696",
"h.	c #F3DE91",
"i.	c #E1C27D",
"j.	c #B87140",
"k.	c #A1541C",
"l.	c #7F6E1B",
"m.	c #8A8127",
"n.	c #B2913C",
"o.	c #71741B",
"p.	c #70751D",
"q.	c #868760",
"r.	c #858D7D",
"s.	c #737627",
"t.	c #C7BC71",
"u.	c #C9B870",
"v.	c #D2AF6E",
"w.	c #D5AC6D",
"x.	c #D6AF6F",
"y.	c #CEA064",
"z.	c #B16133",
"A.	c #BF844F",
"B.	c #C7A464",
"C.	c #8D8339",
"D.	c #71731C",
"E.	c #70741D",
"F.	c #70731C",
"G.	c #72772E",
"H.	c #878763",
"I.	c #A79A84",
"J.	c #887A2E",
"K.	c #B37E46",
"L.	c #BE7F4B",
"M.	c #BE804B",
"N.	c #BD7F4B",
"O.	c #BE804C",
"P.	c #BD7E4A",
"Q.	c #DDBC78",
"R.	c #E6D488",
"S.	c #99954A",
"T.	c #747627",
"U.	c #979991",
"V.	c #767934",
"W.	c #9F9880",
"X.	c #948D43",
"Y.	c #DCC67E",
"Z.	c #ECD38A",
"`.	c #EBD38A",
" +	c #ECD48A",
".+	c #ECD389",
"++	c #EBD288",
"@+	c #EAD288",
"#+	c #EBD289",
"$+	c #EDD58A",
"%+	c #F4DF92",
"&+	c #E8D88A",
"*+	c #9A954B",
"=+	c #6E7226",
"-+	c #908F76",
";+	c #9A964B",
">+	c #E8D98B",
",+	c #E3D898",
"'+	c #C7C497",
")+	c #C5C397",
"!+	c #C4C297",
"~+	c #D2CC98",
"{+	c #F1E298",
"]+	c #DFD089",
"^+	c #BBB076",
"/+	c #B9AE75",
"(+	c #B7AD74",
"_+	c #C8BC7D",
":+	c #F0E093",
"<+	c #FCEA99",
"[+	c #76791E",
"}+	c #9B964A",
"|+	c #E6D78A",
"1+	c #D4CC96",
"2+	c #A1A994",
"3+	c #9EA794",
"4+	c #9CA694",
"5+	c #B6B795",
"6+	c #EBDC96",
"7+	c #CCBE7D",
"8+	c #87815A",
"9+	c #837D58",
"0+	c #807A56",
"a+	c #A49A68",
"b+	c #E9D98F",
"c+	c #757920",
"d+	c #9F9A4D",
"e+	c #F0E097",
"f+	c #E6D896",
"g+	c #E5D896",
"h+	c #E9DB96",
"i+	c #F4E497",
"j+	c #EFDE92",
"k+	c #E4D48C",
"l+	c #E2D38B",
"m+	c #E1D28B",
"n+	c #E7D78E",
"o+	c #F6E496",
"p+	c #99954B",
"q+	c #E7D789",
"r+	c #DECE88",
"s+	c #BCAF74",
"t+	c #BAAD73",
"u+	c #BAAD72",
"v+	c #BBB17B",
"w+	c #C3BE90",
"x+	c #F2E299",
"y+	c #D3CB97",
"z+	c #C4C197",
"A+	c #D2CB97",
"B+	c #FBE998",
"C+	c #6D721A",
"D+	c #E6D689",
"E+	c #CCBE7E",
"F+	c #88815A",
"G+	c #837D57",
"H+	c #898768",
"I+	c #9CA38C",
"J+	c #D5CD97",
"K+	c #EBDD97",
"L+	c #B5B695",
"M+	c #98A494",
"N+	c #ECDE97",
"O+	c #9A954A",
"P+	c #E7D88A",
"Q+	c #E2D38C",
"R+	c #E2D28B",
"S+	c #E2D38D",
"T+	c #E5D794",
"U+	c #EFE097",
"V+	c #F5E498",
"W+	c #E6D997",
"X+	c #EADC97",
"Y+	c #F6E598",
"Z+	c #9B964B",
"`+	c #E7D78A",
" @	c #E3D797",
".@	c #C8C497",
"+@	c #C6C296",
"@@	c #C1B987",
"#@	c #BBAF75",
"$@	c #BAAE74",
"%@	c #BDB686",
"&@	c #D0C995",
"*@	c #D2CB96",
"=@	c #F1E198",
"-@	c #E7D88B",
";@	c #9DA693",
">@	c #91947B",
",@	c #847E5A",
"'@	c #847F5A",
")@	c #8F937B",
"!@	c #B5B694",
"~@	c #EBDD98",
"{@	c #D3CC96",
"]@	c #B7B895",
"^@	c #ECDD97",
"/@	c #F0E197",
"(@	c #E5D997",
"_@	c #E5D691",
":@	c #E3D38B",
"<@	c #E3D590",
"[@	c #F4E397",
"}@	c #EFDF96",
"|@	c #EADC96",
"1@	c #9B9651",
"2@	c #EADB97",
"3@	c #C7C396",
"4@	c #E5D898",
"5@	c #F0DF93",
"6@	c #CABC7D",
"7@	c #B9AD73",
"8@	c #B8AC73",
"9@	c #B7AB72",
"0@	c #C8BB7B",
"a@	c #98954A",
"b@	c #8F852A",
"c@	c #90852A",
"d@	c #777B21",
"e@	c #E6D78B",
"f@	c #A0A994",
"g@	c #E8D88E",
"h@	c #7F7A56",
"i@	c #847E59",
"j@	c #807B57",
"k@	c #A49A69",
"l@	c #E9D88B",
"m@	c #A09049",
"n@	c #7B6B18",
"o@	c #74761C",
"p@	c #A78D36",
"q@	c #71741C",
"r@	c #F4E396",
"s@	c #E2D28A",
"t@	c #E1D18A",
"u@	c #E6D68D",
"v@	c #F6E495",
"w@	c #ECD58B",
"x@	c #B68049",
"y@	c #9D4507",
"z@	c #9A5A17",
"A@	c #7E6F1A",
"B@	c #77791F",
"C@	c #BBAF74",
"D@	c #D0C996",
"E@	c #E5D999",
"F@	c #C6C091",
"G@	c #BDB27C",
"H@	c #C9BB7D",
"I@	c #F0DE92",
"J@	c #FCEB9A",
"K@	c #EDD48A",
"L@	c #BB7A47",
"M@	c #A63700",
"N@	c #A54612",
"O@	c #965D18",
"P@	c #86711E",
"Q@	c #E6D68A",
"R@	c #CBBE7E",
"S@	c #86805A",
"T@	c #827D5A",
"U@	c #8E927B",
"V@	c #B4B694",
"W@	c #EADD97",
"X@	c #9BA28B",
"Y@	c #888667",
"Z@	c #7E7855",
"`@	c #A39968",
" #	c #FDEC9A",
".#	c #A53500",
"+#	c #A84111",
"@#	c #A7461B",
"##	c #926423",
"$#	c #76771D",
"%#	c #99944A",
"&#	c #E5D789",
"*#	c #E5D791",
"=#	c #E7D995",
"-#	c #E4D58E",
";#	c #FCEA9A",
">#	c #A73C07",
",#	c #A8461E",
"'#	c #966941",
")#	c #73741B",
"!#	c #897E28",
"~#	c #AD893D",
"{#	c #8D802A",
"]#	c #75761C",
"^#	c #898839",
"/#	c #BBB167",
"(#	c #E5D689",
"_#	c #FCE998",
":#	c #DEBC78",
"<#	c #C08550",
"[#	c #A74E24",
"}#	c #94591E",
"|#	c #826B1A",
"1#	c #73751B",
"2#	c #73741D",
"3#	c #958130",
"4#	c #A08D31",
"5#	c #A98F37",
"6#	c #777A1F",
"7#	c #757A2F",
"8#	c #7B7D2F",
"9#	c #BBB269",
"0#	c #E6D789",
"a#	c #E8D88B",
"b#	c #C7A465",
"c#	c #9A5C21",
"d#	c #7D6D18",
"e#	c #81865D",
"f#	c #9C9587",
"g#	c #80855F",
"h#	c #717525",
"i#	c #908961",
"j#	c #A19E7A",
"k#	c #9D984C",
"l#	c #7D701B",
"m#	c #74741A",
"n#	c #848B79",
"o#	c #9F9884",
"p#	c #70731D",
"q#	c #717424",
"r#	c #767A1F",
"s#	c #70741A",
"t#	c #75781D",
"u#	c #76781E",
"v#	c #797C21",
"w#	c #71761C",
"x#	c #7B7B21",
"y#	c #6E7319",
"z#	c #6F741B",
"A#	c #8D8429",
"B#	c #B2923C",
"C#	c #8E8329",
"D#	c #9A892F",
"E#	c #947F30",
"F#	c #998631",
"G#	c #A99037",
"H#	c #75791F",
"I#	c #72761C",
"J#	c #7A7D21",
"K#	c #87875D",
"L#	c #898A5D",
"M#	c #897F27",
"N#	c #8A7F2A",
"O#	c #897E29",
"P#	c #82875F",
"Q#	c #80865F",
"R#	c #747820",
"S#	c #74781E",
"T#	c #A9A191",
"U#	c #83845C",
"V#	c #A38638",
"W#	c #A28537",
"X#	c #797B20",
"Y#	c #797D30",
"Z#	c #90907F",
"`#	c #909182",
" $	c #72782E",
".$	c #70741B",
"+$	c #7B7D21",
"@$	c #787A1F",
"#$	c #70732C",
"$$	c #AB9137",
"%$	c #9C8A30",
"&$	c #71731B",
"*$	c #797C2F",
"=$	c #939275",
"-$	c #787B35",
";$	c #74772D",
">$	c #7B7D23",
",$	c #88885D",
"'$	c #87875C",
")$	c #707426",
"!$	c #878566",
"~$	c #878E79",
"{$	c #8A8A5D",
"]$	c #85865C",
"^$	c #9B8A2F",
"/$	c #73751D",
"($	c #A79984",
"_$	c #717625",
":$	c #9C947D",
"<$	c #9C947C",
"[$	c #727524",
"}$	c #737725",
"|$	c #797C30",
"1$	c #7E835C",
"2$	c #7D835C",
"3$	c #72762D",
"4$	c #A08F31",
"5$	c #988630",
"6$	c #71752D",
"7$	c #838A77",
"8$	c #737635",
"9$	c #6E711A",
"0$	c #7C7E22",
"                                                                                                                                ",
"                                                                                                                                ",
"                                                                                        . +                                     ",
"                                        @                                               + #                                     ",
"                                    $ + % &                         &   * @                                                     ",
"                                  . = - ; > ,                     + ' = ) !                                                     ",
"              ~ ~                 % - { ] ^                         / ( _ :                                                     ",
"            < [ [ <                 { ! } |                           1 2 3                                 @                   ",
"            4 5 5 4                   6 7                               8                             &   9 0                   ",
"                                                      + a @                       4 b 4               c d % e                   ",
"                                                  . f g h                         : _ i j ~           7 k e               @     ",
"                                                  l m n o                       p q r s t u                         v w x >     ",
"                                                  | y z A                       B C D E F                           G n H I     ",
"                                                      0                           8                                 4 J K L     ",
"                                                                                                                                ",
"                                                                                                                                ",
"                                                                                                                                ",
"                                      ! M N N N N N N N N N N N N N M O                                                         ",
"                                      P Q R S S S S S S S S S S S T U V W             *                                         ",
"                                  ! P X Y Z ` ` ` ` ` ` ` ` ` ` `  ...+.@.#.$.        %.+   @                                   ",
"                                  M Q Y &.Z Z Z Z Z Z Z Z Z Z Z *.=.-.;.>.,.'.      . ).!.. !                                   ",
"                                  N ~.Z Z Z Z Z Z Z Z Z Z Z Z {.].^././.(._.:.      ! <.[.}.|.                                  ",
"      $ + . + 1.1.                M Q Y &.Z Z Z {.{.{.{.{.{.{.2.*.=.-.;.3.4.5.    6.7.8.9.0.a.          .                       ",
"      = b.c.d.e.f.1.              ! P X Y Z *.].].].].].].].].].g.h.i.j.3.k.l.    m.n.m.  7 o.    ! . @ l                       ",
"      l p.( _ q.r.s.                  P Q t.u.v.^.w.w.w.w.w.w.w.w.x.y.z.A.B.C.      D.            8 E.^ |                       ",
"      F.G.1 r H.I.:                   ! M   J.K.L.M.M.M.L.N.L.O.O.O.P.N.Q.R.S.                      | &                         ",
"      T.U.V.W.s 2 3                         X.Y.Z.`.`.`.`. +.+++++@+#+$+%+&+*+                                                  ",
"        =+1.-+3 8                           ;+>+,+'+)+!+~+{+]+^+/+(+_+:+<+&+S.                                        + a @     ",
"            8                       @ [+    }+|+1+2+3+4+5+6+7+8+9+0+a+b+<+&+S.                                        0 {       ",
"                                      c+@ + d+&+e+f+g+g+h+i+j+k+l+m+n+o+Z &+S.                                                  ",
"                                      | 7 - p+q+r+s+t+u+v+w+,+x+y+z+A+{+B+&+S.                                                  ",
"                                          C+*+D+E+F+9+G+H+I+J+K+L+M+L+N+B+&+S.                                                  ",
"                                            O+P+j+Q+R+R+S+T+U+V+K+W+X+Y+Z &+S.                                                  ",
"                                            Z+`+ @.@+@@@#@$@%@&@{+ @*@=@B+&+S.                                                  ",
"                                            Z+-@1+2+;@>@,@'@)@!@~@{@]@^@B+&+S.                                            *     ",
"                                            *+b+/@W+(@_@:@R+<@h+[@}@|@Y+Z &+S.                                      , [++ c     ",
"                  + [+  + !                 1@2@ @3@3@4@5@6@7@7@8@9@0@j+2.P+a@                                      b@c@- C+    ",
"                    d@+ -                   *+e@1+f@f@J+g@a+h@i@i@j@k@b+<+l@m@n@'.$.                              o@p@p@/       ",
"                    { q@C+                  O+&+e+g+g+U+r@g@l+R+s@t@u@v@<+w@x@y@z@A@B@!                             o.o.        ",
"                                            *+q+r+C@$@%@D@x+E@F@G@7@H@I@J@K@L@M@N@O@P@*                                         ",
"                                            *+Q@R@S@T@U@V@W@J+X@Y@Z@`@b+ #K@L@.#+#@###o@                                        ",
"        $#                                  %#&#j+k+k+*#K+Y+{+=#-#:@g@o+;#$+P.>#+#,#'#)#                                        ",
"      !#~#{#a.]#                      $ &   ^#/#(#<+<+<+B+Z B+_#<+<+<+Z 2.%+:#<#[#}#|#1#                                        ",
"      2#3#4#5#o@                    6#b.7#d ! 8#9#0#a#&+&+&+&+&+&+&+&+&+&+&+R.b#c#d#                                            ",
"        8 o.o.                      % e#f#g#h#i#j#%#S.S.S.S.S.S.S.S.;+k#S.*+S.C.l#m#                                            ",
"                                      J n#o#j p#q#                    r#@                                                       ",
"                                        D -+3                         s#s#                                                      ",
"                                          8                                                                                     ",
"                                                                                                                                ",
"      t#                                                                                  u#[+                                  ",
"      . +                         4 v#                                                    > o.                                  ",
"    t#w#0                           r#u#x#+                                               y#                                    ",
"    4 0                             z#A#B#C#o@      + [+@ B@                                                                    ",
"                                      O D#E#F#    . u#& - +                                                           t#  1#    ",
"                          +             8 7 D.    u#G#G#% H#                                                      t#@ I#6#J#    ",
"                      4 K#L#                  1#    M#M#N#O#          t#u#  + !                                   ] P#Q#R#S#    ",
"    1#                b T#U#                  J#6#    $#V#W#o@      + X#. % Y#4                                   h#Z#`# $.$    ",
"  & +$@ + @$          4 #$4                   s#0   ]#$$%$&$          *$=$-$U.;$                            t#>$,$'$)$!$~$      ",
"  v#{$]$b.| @$* t#                                  o@^$/$            L ($L =+4                               _$:$<$D p#F       ",
"  [$:$:$}$4 |$H#[+                t#u#]#u#!           8               4 #$4                                     F F             ",
"    F F   1$f#2$3$4                 . 4$5$              + ! v#t#                                                                ",
"          6$7$8$U.;$                z#q@9$            1#0$w#.$                                                                  ",
"            8   =+4                                     I#!                                                                     ",
"                                                                                                                                "};
